<svg width="316" height="600" viewBox="0 0 316 600" fill="none" xmlns="http://www.w3.org/2000/svg">
<g clip-path="url(#clip0_101_26)">
<path d="M16 0C-149.576 0 -284 134.424 -284 300C-284 465.576 -149.576 600 16 600C181.276 600 315.466 466.056 315.952 300.888C315.983 300.593 315.999 300.297 316 300C316 299.734 315.988 299.467 315.964 299.202C315.532 133.992 181.312 0 16 0ZM24.4 18.21C35.1751 18.5091 45.9244 19.4206 56.596 20.94C63.436 23.712 69.736 27.018 73.48 30.222C84.316 38.982 136.42 65.382 110.74 36.126C110.356 35.346 110.14 34.722 109.876 34.044C219.502 72.69 298 177.084 298 300C298 433.764 205.036 545.568 80.158 574.596C87.604 570.594 96.178 566.424 101.254 563.532C127.03 551.832 151.048 537.828 172.504 518.388C187.468 493.08 220.624 486.528 232.024 457.992C239.17 432.342 262.288 412.866 262.996 385.512C250.714 367.71 212.836 383.442 205.924 357.888C203.35 331.038 174.694 342.798 162.1 330.168C143.23 327.984 154.81 296.796 139.27 311.19C120.136 302.106 124.87 314.13 104.428 314.58C106.966 305.382 90.868 296.76 87.496 305.178C85.504 305.97 53.212 304.746 50.104 325.068C37.948 325.638 19.804 328.182 7.924 321.492C-2.666 306.564 19.066 280.632 -11.576 279.354C-33.356 284.73 -22.436 270.6 -18.626 255.318C-9.14 230.88 -46.526 247.62 -50.972 260.25C-74.408 273.39 -89.114 236.316 -76.142 218.826C-72.77 182.934 -32.774 205.02 -14.516 192.186C4.63001 191.862 12.928 214.746 14.116 227.616C44.404 222.696 0.0100088 182.376 30.316 173.358C54.466 167.19 41.734 145.068 58.816 131.904C80.584 133.272 58.888 114.858 77.02 113.184C84.1 118.572 117.706 112.014 103.504 97.794C91.708 108.564 88.072 89.85 78.952 87.846C90.634 88.02 95.062 93.294 103.654 81.408C100.786 97.056 120.052 103.44 133.174 99.6C116.704 77.964 93.202 64.812 69.454 50.1C64.33 28.38 46.714 23.688 24.4 18.21V18.21ZM21.706 28.392C25.666 28.194 30.106 29.04 32.302 31.194C13.576 40.794 22.516 41.766 25.198 57.984C33.688 53.82 25.318 69.24 26.35 63.162C32.086 54.558 12.688 58.134 20.17 71.85C11.608 61.608 -10.568 62.658 -20.996 52.5C-20.612 31.722 13.048 50.904 18.532 37.008C9.862 31.992 15.112 28.728 21.712 28.392H21.706ZM-129.032 58.092C-134.192 65.994 -144.92 77.484 -138.194 75.06C-137.582 79.698 -147.254 107.25 -159.17 116.556C-169.838 129.87 -174.89 161.814 -164 169.158C-163.136 185.076 -161.018 203.736 -156.818 218.016C-142.208 249.474 -140.822 211.74 -149.9 197.736C-139.88 211.17 -127.472 236.934 -126.068 257.79C-111.602 269.772 -93.494 284.148 -73.658 283.23C-57.752 290.814 -34.94 302.496 -18.488 313.326C-12.956 329.586 5.932 339.648 21.424 344.424C28.996 325.83 42.79 348.234 40.63 362.25C33.658 375.366 11.92 390.054 18.496 405.822C4.588 422.07 29.65 435.018 35.356 452.238C44.398 465.084 50.128 482.394 69.064 485.718C94.618 503.826 65.548 536.136 55.948 557.016C53.446 564.72 40.318 573.618 37.528 581.1C30.412 581.634 23.248 582 16 582C-139.85 582 -266 455.85 -266 300C-266 197.208 -211.106 107.37 -129.032 58.092V58.092ZM36.616 210.198C34.396 210.096 32.122 211.038 29.794 213.504C45.142 212.574 22.774 233.946 40.576 233.496C47.68 211.626 45.124 238.578 58.636 241.854C67.246 250.374 60.718 228.972 60.136 230.814C54.514 230.598 46.198 210.636 36.616 210.198V210.198ZM14.242 231.54C9.53421 231.383 4.89398 232.693 0.963997 235.29C-15.68 244.8 -0.715999 244.356 5.164 248.988C15.706 240.066 24.268 248.79 36.952 253.302C37.084 270.948 65.458 247.506 65.404 260.982C49.816 266.928 68.524 272.082 76.588 271.158C79.948 277.008 81.976 268.878 85.726 269.436C98.176 270.84 109.33 262.674 88.972 256.056C72.388 258.552 70.996 248.496 65.632 244.416C51.352 254.46 33.256 232.116 14.242 231.54V231.54ZM128.884 263.202C128.374 263.4 128.05 264.264 127.996 266.19C134.794 276.522 146.44 290.16 139.336 305.154C153.016 303.648 142.66 275.724 138.79 265.524C136.78 273.936 131.104 262.344 128.89 263.202H128.884Z" fill="#CBC26D"/>
</g>
<defs>
<clipPath id="clip0_101_26">
<rect width="316" height="600" fill="white"/>
</clipPath>
</defs>
</svg>
