<svg width="439" height="600" viewBox="0 0 439 600" fill="none" xmlns="http://www.w3.org/2000/svg">
<g clip-path="url(#clip0_101_19)">
<path d="M300 0C134.424 0 0 134.424 0 300C0 465.576 134.424 600 300 600C465.276 600 599.466 466.056 599.952 300.888C599.983 300.593 599.999 300.297 600 300C600 299.734 599.988 299.467 599.964 299.202C599.532 133.992 465.312 0 300 0ZM300 18C302.82 18 305.604 18.126 308.4 18.21C330.72 23.688 348.33 28.38 353.448 50.1C377.208 64.812 400.704 77.964 417.174 99.6C404.052 103.44 384.786 97.056 387.654 81.408C379.062 93.294 374.634 88.02 362.952 87.846C372.072 89.85 375.708 108.564 387.504 97.794C401.706 112.014 368.106 118.572 361.02 113.178C342.888 114.858 364.584 133.272 342.822 131.904C325.734 145.068 338.466 167.19 314.322 173.358C284.01 182.376 328.404 222.69 298.116 227.616C296.928 214.74 288.636 191.856 269.484 192.186C251.226 205.02 211.224 182.934 207.858 218.826C194.886 236.316 209.592 273.39 233.028 260.25C237.48 247.62 274.86 230.88 265.368 255.318C261.57 270.6 250.644 284.73 272.424 279.354C303.066 280.638 281.334 306.564 291.924 321.492C303.804 328.182 321.948 325.638 334.104 325.068C337.212 304.746 369.504 305.97 371.496 305.178C374.868 296.754 390.966 305.382 388.428 314.58C408.87 314.136 404.136 302.1 423.27 311.19C438.81 296.796 427.23 327.99 446.1 330.162C458.694 342.798 487.35 331.038 489.924 357.888C496.836 383.442 534.714 367.71 546.996 385.512C546.288 412.866 523.176 432.342 516.024 457.992C504.624 486.528 471.468 493.08 456.504 518.388C435.048 537.828 411.024 551.826 385.254 563.532C380.184 566.424 371.616 570.576 364.17 574.584C350.143 577.842 335.888 580.021 321.528 581.1C324.312 573.618 337.446 564.72 339.948 557.016C349.548 536.136 378.618 503.826 353.064 485.718C334.128 482.394 328.398 465.084 319.362 452.238C313.65 435.018 288.582 422.07 302.496 405.822C295.92 390.054 317.658 375.366 324.636 362.25C326.796 348.234 312.996 325.83 305.424 344.43C289.938 339.648 271.044 329.586 265.512 313.326C249.06 302.496 226.248 290.814 210.342 283.23C190.506 284.148 172.398 269.772 157.932 257.79C156.528 236.934 144.114 211.17 134.1 197.73C143.178 211.74 141.792 249.474 127.182 218.01C122.982 203.73 120.864 185.076 120 169.158C109.104 161.814 114.162 129.87 124.83 116.556C136.74 107.256 146.418 79.698 145.806 75.06C139.08 77.484 149.874 65.958 155.04 58.056C198.819 31.7722 248.937 17.9235 300 18V18ZM340.71 20.964C358.806 23.5762 376.603 27.9531 393.846 34.032C394.104 34.692 394.368 35.364 394.734 36.132C420.426 65.382 368.316 38.976 357.48 30.222C353.754 27.036 347.52 23.73 340.71 20.964V20.964ZM305.706 28.392C299.118 28.728 293.862 31.992 302.526 37.008C297.048 50.904 263.388 31.728 263.004 52.5C273.432 62.658 295.608 61.608 304.17 71.85C296.688 58.134 316.086 54.558 310.35 63.162C309.318 69.24 317.688 53.82 309.198 57.984C306.516 41.766 297.576 40.794 316.302 31.194C314.1 29.04 309.66 28.194 305.706 28.392V28.392ZM320.616 210.198C330.198 210.636 338.514 230.598 344.136 230.814C344.718 228.972 351.246 250.374 342.636 241.854C329.124 238.578 331.68 211.626 324.576 233.496C306.768 233.946 329.142 212.574 313.794 213.504C316.122 211.044 318.402 210.096 320.616 210.204V210.198ZM298.242 231.54C317.256 232.116 335.352 254.46 349.626 244.416C354.996 248.496 356.388 258.552 372.972 256.056C393.33 262.674 382.176 270.84 369.732 269.436C365.976 268.878 363.948 277.008 360.588 271.158C352.524 272.082 333.816 266.928 349.404 260.976C349.464 247.506 321.084 270.948 320.952 253.296C308.268 248.79 299.712 240.066 289.158 248.988C283.278 244.356 268.32 244.8 284.964 235.29C288.894 232.693 293.534 231.383 298.242 231.54V231.54ZM412.884 263.202C415.104 262.338 420.78 273.942 422.784 265.524C426.66 275.724 437.01 303.648 423.342 305.154C430.44 290.154 418.794 276.522 411.996 266.19C412.056 264.27 412.374 263.4 412.884 263.202V263.202Z" fill="#CBC26D"/>
</g>
<defs>
<clipPath id="clip0_101_19">
<rect width="439" height="600" fill="white"/>
</clipPath>
</defs>
</svg>
