<svg width="162" height="40" viewBox="0 0 162 40" fill="none" xmlns="http://www.w3.org/2000/svg">
<path d="M62.1631 20.8696C60.2406 20.8696 58.5048 20.4189 56.9556 19.5175C55.425 18.616 54.2118 17.3717 53.3159 15.7844C52.4386 14.1972 52 12.414 52 10.4348C52 8.4556 52.4386 6.67238 53.3159 5.08512C54.2118 3.49786 55.425 2.25352 56.9556 1.35211C58.5048 0.450704 60.2406 5.18301e-08 62.1631 5.18301e-08C63.5817 5.18301e-08 64.8882 0.244948 66.0828 0.734845C67.2774 1.20514 68.2946 1.91059 69.1345 2.85119L68.2386 3.82119C66.6707 2.19473 64.6643 1.38151 62.2191 1.38151C60.5766 1.38151 59.0834 1.77342 57.7395 2.55726C56.3956 3.34109 55.341 4.42866 54.5758 5.81996C53.8105 7.19167 53.4279 8.72994 53.4279 10.4348C53.4279 12.1396 53.8105 13.6877 54.5758 15.079C55.341 16.4507 56.3956 17.5285 57.7395 18.3123C59.0834 19.0961 60.5766 19.4881 62.2191 19.4881C64.6456 19.4881 66.6521 18.665 68.2386 17.019L69.1345 17.989C68.2946 18.9296 67.268 19.6448 66.0548 20.1347C64.8602 20.6246 63.563 20.8696 62.1631 20.8696Z" fill="#165AAA"/>
<path d="M89.6662 0V20.8696H88.2383V11.0814H75.1355V20.8696H73.7076V0H75.1355V9.75873H88.2383V0H89.6662Z" fill="#165AAA"/>
<path d="M104.826 20.8696C102.903 20.8696 101.167 20.4189 99.6181 19.5175C98.0689 18.5965 96.8463 17.3423 95.9504 15.7551C95.0731 14.1678 94.6345 12.3944 94.6345 10.4348C94.6345 8.4752 95.0731 6.70178 95.9504 5.11451C96.8463 3.52725 98.0689 2.28291 99.6181 1.38151C101.167 0.460502 102.903 5.18301e-08 104.826 5.18301e-08C106.748 5.18301e-08 108.484 0.450704 110.033 1.35211C111.582 2.25352 112.796 3.49786 113.673 5.08512C114.569 6.67238 115.017 8.4556 115.017 10.4348C115.017 12.414 114.569 14.1972 113.673 15.7844C112.796 17.3717 111.582 18.616 110.033 19.5175C108.484 20.4189 106.748 20.8696 104.826 20.8696ZM104.826 19.4881C106.468 19.4881 107.952 19.0961 109.277 18.3123C110.602 17.5285 111.648 16.4507 112.413 15.079C113.178 13.6877 113.561 12.1396 113.561 10.4348C113.561 8.72994 113.178 7.19167 112.413 5.81996C111.648 4.42866 110.602 3.34109 109.277 2.55726C107.952 1.77342 106.468 1.38151 104.826 1.38151C103.183 1.38151 101.69 1.77342 100.346 2.55726C99.0208 3.34109 97.9755 4.42866 97.2103 5.81996C96.445 7.19167 96.0624 8.72994 96.0624 10.4348C96.0624 12.1396 96.445 13.6877 97.2103 15.079C97.9755 16.4507 99.0208 17.5285 100.346 18.3123C101.69 19.0961 103.183 19.4881 104.826 19.4881Z" fill="#165AAA"/>
<path d="M119.969 0H121.397V20.8696H119.969V0Z" fill="#165AAA"/>
<path d="M136.514 20.8696C134.591 20.8696 132.855 20.4189 131.306 19.5175C129.776 18.616 128.562 17.3717 127.666 15.7844C126.789 14.1972 126.351 12.414 126.351 10.4348C126.351 8.4556 126.789 6.67238 127.666 5.08512C128.562 3.49786 129.776 2.25352 131.306 1.35211C132.855 0.450704 134.591 0 136.514 0C137.932 0 139.239 0.244948 140.433 0.734845C141.628 1.20514 142.645 1.91059 143.485 2.85119L142.589 3.82119C141.021 2.19473 139.015 1.38151 136.57 1.38151C134.927 1.38151 133.434 1.77342 132.09 2.55726C130.746 3.34109 129.692 4.42866 128.926 5.81996C128.161 7.19167 127.778 8.72994 127.778 10.4348C127.778 12.1396 128.161 13.6877 128.926 15.079C129.692 16.4507 130.746 17.5285 132.09 18.3123C133.434 19.0961 134.927 19.4881 136.57 19.4881C138.996 19.4881 141.003 18.665 142.589 17.019L143.485 17.989C142.645 18.9296 141.619 19.6448 140.405 20.1347C139.211 20.6246 137.914 20.8696 136.514 20.8696Z" fill="#165AAA"/>
<path d="M162 19.5175V20.8696H148.477V0H161.58V1.35211H149.905V9.75873H160.348V11.0814H149.905V19.5175H162Z" fill="#165AAA"/>
<path d="M52 29.6387H52.73V39.9265H52V29.6387Z" fill="#165AAA"/>
<path d="M64.3795 29.6387V39.9265H63.7783L56.9511 30.9908V39.9265H56.2212V29.6387H56.8366L63.6495 38.5744V29.6387H64.3795Z" fill="#165AAA"/>
<path d="M68.6082 30.3148V34.7091H73.9469V35.3852H68.6082V39.9265H67.8783V29.6387H74.5767V30.3148H68.6082Z" fill="#165AAA"/>
<path d="M81.0328 40C80.0499 40 79.1626 39.7746 78.3706 39.3239C77.5786 38.8634 76.9536 38.2364 76.4956 37.4427C76.0471 36.6491 75.8229 35.7624 75.8229 34.7826C75.8229 33.8028 76.0471 32.9161 76.4956 32.1225C76.9536 31.3288 77.5786 30.7067 78.3706 30.256C79.1626 29.7955 80.0499 29.5652 81.0328 29.5652C82.0156 29.5652 82.903 29.7906 83.6949 30.2413C84.4869 30.692 85.1071 31.3141 85.5556 32.1078C86.0136 32.9014 86.2426 33.793 86.2426 34.7826C86.2426 35.7722 86.0136 36.6638 85.5556 37.4574C85.1071 38.2511 84.4869 38.8732 83.6949 39.3239C82.903 39.7746 82.0156 40 81.0328 40ZM81.0328 39.3092C81.8724 39.3092 82.631 39.1133 83.3085 38.7214C83.986 38.3294 84.5203 37.7906 84.9115 37.1047C85.3027 36.4091 85.4984 35.635 85.4984 34.7826C85.4984 33.9302 85.3027 33.1611 84.9115 32.4752C84.5203 31.7795 83.986 31.2358 83.3085 30.8438C82.631 30.4519 81.8724 30.256 81.0328 30.256C80.1931 30.256 79.4297 30.4519 78.7427 30.8438C78.0652 31.2358 77.5309 31.7795 77.1397 32.4752C76.7485 33.1611 76.5528 33.9302 76.5528 34.7826C76.5528 35.635 76.7485 36.4091 77.1397 37.1047C77.5309 37.7906 78.0652 38.3294 78.7427 38.7214C79.4297 39.1133 80.1931 39.3092 81.0328 39.3092Z" fill="#165AAA"/>
<path d="M95.7304 39.9265L93.3402 36.4874C92.9872 36.5364 92.6627 36.5609 92.3669 36.5609H89.5044V39.9265H88.7744V29.6387H92.3669C93.6265 29.6387 94.614 29.9473 95.3297 30.5646C96.0453 31.1721 96.4031 32.0196 96.4031 33.1072C96.4031 33.9204 96.198 34.6062 95.7877 35.1647C95.3869 35.7134 94.8097 36.1004 94.0558 36.3258L96.5606 39.9265H95.7304ZM92.3669 35.8996C93.4356 35.8996 94.2515 35.6595 94.8144 35.1794C95.3774 34.6895 95.6589 33.9988 95.6589 33.1072C95.6589 32.2156 95.3774 31.5297 94.8144 31.0496C94.2515 30.5597 93.4356 30.3148 92.3669 30.3148H89.5044V35.8996H92.3669Z" fill="#165AAA"/>
<path d="M108.551 39.9265L108.536 31.1231L104.343 38.5597H103.985L99.7914 31.1525V39.9265H99.0757V29.6387H99.6912L104.171 37.5897L108.651 29.6387H109.252L109.266 39.9265H108.551Z" fill="#165AAA"/>
<path d="M112.76 29.6387H113.49V39.9265H112.76V29.6387Z" fill="#165AAA"/>
<path d="M125.139 29.6387V39.9265H124.538L117.711 30.9908V39.9265H116.981V29.6387H117.596L124.409 38.5744V29.6387H125.139Z" fill="#165AAA"/>
<path d="M135.794 34.8267H136.496V38.6773C136.057 39.1084 135.522 39.4366 134.893 39.662C134.272 39.8873 133.614 40 132.917 40C131.925 40 131.028 39.7746 130.227 39.3239C129.435 38.8732 128.81 38.2511 128.352 37.4574C127.903 36.6638 127.679 35.7722 127.679 34.7826C127.679 33.793 127.903 32.9014 128.352 32.1078C128.81 31.3141 129.435 30.692 130.227 30.2413C131.028 29.7906 131.93 29.5652 132.932 29.5652C133.666 29.5652 134.339 29.6877 134.95 29.9326C135.57 30.1678 136.1 30.5156 136.539 30.9761L136.08 31.4758C135.661 31.0447 135.188 30.7361 134.664 30.5499C134.148 30.354 133.576 30.256 132.946 30.256C132.087 30.256 131.31 30.4519 130.613 30.8438C129.926 31.2358 129.387 31.7795 128.996 32.4752C128.604 33.1611 128.409 33.9302 128.409 34.7826C128.409 35.6252 128.604 36.3944 128.996 37.09C129.396 37.7759 129.94 38.3197 130.627 38.7214C131.314 39.1133 132.087 39.3092 132.946 39.3092C134.091 39.3092 135.04 38.9957 135.794 38.3686V34.8267Z" fill="#165AAA"/>
<path d="M139.533 39.9853C139.371 39.9853 139.227 39.9265 139.103 39.8089C138.989 39.6816 138.932 39.5297 138.932 39.3533C138.932 39.177 138.989 39.03 139.103 38.9124C139.227 38.7949 139.371 38.7361 139.533 38.7361C139.695 38.7361 139.833 38.7949 139.948 38.9124C140.072 39.03 140.134 39.177 140.134 39.3533C140.134 39.5297 140.072 39.6816 139.948 39.8089C139.833 39.9265 139.695 39.9853 139.533 39.9853Z" fill="#165AAA"/>
<path d="M146.509 40C145.24 40 144.252 39.6228 143.546 38.8683C142.85 38.1139 142.501 37.0116 142.501 35.5615V29.6387H143.231V35.5322C143.231 36.7961 143.513 37.7416 144.076 38.3686C144.639 38.9957 145.455 39.3092 146.523 39.3092C147.582 39.3092 148.393 38.9957 148.956 38.3686C149.519 37.7416 149.801 36.7961 149.801 35.5322V29.6387H150.531V35.5615C150.531 37.0116 150.178 38.1139 149.472 38.8683C148.766 39.6228 147.778 40 146.509 40Z" fill="#165AAA"/>
<path d="M159.925 37.0312H154.114L152.84 39.9265H152.053L156.661 29.6387H157.391L162 39.9265H161.213L159.925 37.0312ZM159.653 36.3993L157.019 30.4617L154.4 36.3993H159.653Z" fill="#165AAA"/>
<path d="M39 24.3478H162V25.7391H39V24.3478Z" fill="#EAC131"/>
<circle cx="20" cy="20" r="20" fill="#EAC131"/>
<rect x="3.57726" y="6.39566" width="7.96748" height="26.0705" rx="1" fill="#165AAA"/>
<rect x="5.09486" y="9.48511" width="4.98645" height="0.921409" rx="0.460705" fill="#EAC131"/>
<rect x="5.09486" y="11.5989" width="4.98645" height="0.921409" rx="0.460705" fill="#EAC131"/>
<rect x="5.09486" y="13.7127" width="4.98645" height="0.921409" rx="0.460705" fill="#EAC131"/>
<circle cx="7.56099" cy="26.9106" r="2.52033" fill="#EAC131"/>
<rect x="12.7372" y="6.39566" width="7.96748" height="26.0705" rx="1" fill="#165AAA"/>
<rect x="14.2548" y="9.48511" width="4.98645" height="0.921409" rx="0.460705" fill="#EAC131"/>
<rect x="14.2548" y="11.5989" width="4.98645" height="0.921409" rx="0.460705" fill="#EAC131"/>
<rect x="14.2548" y="13.7127" width="4.98645" height="0.921409" rx="0.460705" fill="#EAC131"/>
<circle cx="16.7209" cy="26.9106" r="2.52033" fill="#EAC131"/>
<rect x="21.9652" y="7.26538" width="7.96748" height="26.0705" rx="1" transform="rotate(-15 21.9652 7.26538)" fill="#165AAA"/>
<rect x="24.2308" y="9.85677" width="4.98645" height="0.921409" rx="0.460705" transform="rotate(-15 24.2308 9.85677)" fill="#EAC131"/>
<rect x="24.7779" y="11.8986" width="4.98645" height="0.921409" rx="0.460705" transform="rotate(-15 24.7779 11.8986)" fill="#EAC131"/>
<rect x="25.325" y="13.9404" width="4.98645" height="0.921409" rx="0.460705" transform="rotate(-15 25.325 13.9404)" fill="#EAC131"/>
<circle cx="31.1229" cy="26.0502" r="2.52033" transform="rotate(-15 31.1229 26.0502)" fill="#EAC131"/>
<rect x="1.40923" y="33.6043" width="37.1816" height="1.19241" rx="0.596206" fill="#165AAA"/>
</svg>
