<svg width="77" height="77" viewBox="0 0 77 77" fill="none" xmlns="http://www.w3.org/2000/svg">
<path d="M38.5 38.5C47.3596 38.5 54.5417 31.3179 54.5417 22.4583C54.5417 13.5987 47.3596 6.41663 38.5 6.41663C29.6405 6.41663 22.4584 13.5987 22.4584 22.4583C22.4584 31.3179 29.6405 38.5 38.5 38.5Z" stroke="black" stroke-width="2"/>
<path d="M54.5417 70.5833H16.8951C15.9852 70.5835 15.0856 70.3902 14.2561 70.0161C13.4266 69.6421 12.6861 69.0959 12.0838 68.4138C11.4815 67.7317 11.0312 66.9293 10.7627 66.0599C10.4942 65.1905 10.4137 64.2739 10.5266 63.371L11.7778 53.3481C12.0688 51.0196 13.2004 48.8776 14.96 47.3249C16.7195 45.7722 18.9856 44.9157 21.3322 44.9166H22.4584" stroke="black" stroke-width="2" stroke-linecap="round" stroke-linejoin="round"/>
<path d="M70.5834 44.9166L54.5417 60.9583M70.5834 60.9583L54.5417 44.9166L70.5834 60.9583Z" stroke="black" stroke-width="2" stroke-linecap="round"/>
</svg>
