<svg width="26" height="26" viewBox="0 0 26 26" fill="none" xmlns="http://www.w3.org/2000/svg">
<path d="M23.45 16.925C22.1265 16.7616 20.8122 16.5301 19.5125 16.2312C19.1952 16.1252 18.8559 16.1028 18.5275 16.1663C18.199 16.2298 17.8925 16.3771 17.6375 16.5937C17.3063 16.9312 16.35 17.875 15.3563 18.85C11.7958 17.0997 8.91635 14.218 7.1688 10.6562C8.13755 9.66249 9.0438 8.71249 9.41255 8.38124C9.62922 8.12633 9.77644 7.8198 9.83994 7.49133C9.90345 7.16285 9.88109 6.82354 9.77505 6.50624C9.47581 5.20452 9.24425 3.88817 9.0813 2.56249C9.06384 2.39367 9.01219 2.23018 8.92949 2.08197C8.84679 1.93377 8.73477 1.80396 8.60027 1.70045C8.46577 1.59694 8.31161 1.52191 8.14716 1.47993C7.98272 1.43794 7.81145 1.42988 7.6438 1.45624H2.3188C2.09899 1.47608 1.89324 1.57283 1.73776 1.72946C1.58227 1.88609 1.48703 2.09255 1.4688 2.31249C1.12505 7.11874 3.8063 12.2625 4.35005 13.25V13.2875L4.42505 13.4312C6.37151 16.8071 9.17415 19.6098 12.55 21.5562V21.5562L12.825 21.7125C14.075 22.375 19.0438 24.875 23.6875 24.5312C23.9097 24.5158 24.1191 24.4218 24.2783 24.2661C24.4375 24.1103 24.536 23.903 24.5563 23.6812V18.3625C24.5827 18.1948 24.5746 18.0236 24.5326 17.8591C24.4906 17.6947 24.4156 17.5405 24.3121 17.406C24.2086 17.2715 24.0788 17.1595 23.9306 17.0768C23.7824 16.9941 23.6189 16.9424 23.45 16.925Z" stroke="white" stroke-linecap="round" stroke-linejoin="round"/>
</svg>
