<svg width="77" height="77" viewBox="0 0 77 77" fill="none" xmlns="http://www.w3.org/2000/svg">
<path d="M19.25 9.625V19.25H9.625V9.625H19.25ZM4.8125 4.8125V24.0625H24.0625V4.8125H4.8125ZM43.3125 16.8438V26.4688H33.6875V16.8438H43.3125ZM28.875 12.0312V31.2812H48.125V12.0312H28.875ZM19.25 38.5V48.125H9.625V38.5H19.25ZM4.8125 33.6875V52.9375H24.0625V33.6875H4.8125Z" fill="black"/>
<path d="M52.9375 24.0625V38.5H38.5V52.9375H24.0625V72.1875H72.1875V24.0625H52.9375ZM43.3125 43.3125H52.9375V52.9375H43.3125V43.3125ZM38.5 67.375H28.875V57.75H38.5V67.375ZM52.9375 67.375H43.3125V57.75H52.9375V67.375ZM67.375 67.375H57.75V57.75H67.375V67.375ZM67.375 52.9375H57.75V43.3125H67.375V52.9375ZM57.75 38.5V28.875H67.375V38.5H57.75Z" fill="black"/>
</svg>
