<svg width="32" height="32" viewBox="0 0 32 32" fill="none" xmlns="http://www.w3.org/2000/svg">
<path d="M16 0.5C7.43948 0.5 0.5 7.43948 0.5 16C0.5 24.5605 7.43948 31.5 16 31.5C24.5605 31.5 31.5 24.5605 31.5 16C31.5 7.43948 24.5605 0.5 16 0.5ZM12.2057 22.4244H9.06698V12.3236H12.2057V22.4244ZM10.617 11.0836C9.62562 11.0836 8.98464 10.3812 8.98464 9.5126C8.98464 8.6262 9.645 7.94484 10.6573 7.94484C11.6697 7.94484 12.2897 8.6262 12.3091 9.5126C12.3091 10.3812 11.6697 11.0836 10.617 11.0836ZM23.6693 22.4244H20.5305V16.8267C20.5305 15.5237 20.0752 14.6389 18.9402 14.6389C18.0731 14.6389 17.5581 15.2379 17.3304 15.8143C17.2465 16.0194 17.2255 16.31 17.2255 16.599V22.4228H14.0851V15.5447C14.0851 14.2837 14.0447 13.2294 14.0028 12.322H16.7298L16.8735 13.7251H16.9365C17.3498 13.0663 18.3621 12.0943 20.0558 12.0943C22.1209 12.0943 23.6693 13.478 23.6693 16.4521V22.4244Z" fill="black"/>
</svg>
