<svg width="30" height="20" viewBox="0 0 30 20" fill="none" xmlns="http://www.w3.org/2000/svg">
<path d="M26.1067 3.29202L15 11.4662L3.89334 3.29202M2.58293 0.586191C2.2072 0.586191 1.84687 0.735447 1.58119 1.00112C1.31552 1.2668 1.16626 1.62713 1.16626 2.00286V18.0183C1.16626 18.394 1.31552 18.7543 1.58119 19.02C1.84687 19.2857 2.2072 19.4349 2.58293 19.4349H27.4171C27.7928 19.4349 28.1532 19.2857 28.4188 19.02C28.6845 18.7543 28.8338 18.394 28.8338 18.0183V1.98161C28.8338 1.60588 28.6845 1.24555 28.4188 0.979873C28.1532 0.714196 27.7928 0.564941 27.4171 0.564941H2.58293V0.586191Z" stroke="black" stroke-linecap="round" stroke-linejoin="round"/>
</svg>
