<svg width="34" height="24" viewBox="0 0 34 24" fill="none" xmlns="http://www.w3.org/2000/svg">
<path d="M30.0666 4.10833L17 13.725L3.93331 4.10833M2.39164 0.924994C1.94961 0.924994 1.52569 1.10059 1.21313 1.41315C0.900571 1.72571 0.724976 2.14963 0.724976 2.59166V21.4333C0.724976 21.8754 0.900571 22.2993 1.21313 22.6118C1.52569 22.9244 1.94961 23.1 2.39164 23.1H31.6083C32.0503 23.1 32.4743 22.9244 32.7868 22.6118C33.0994 22.2993 33.275 21.8754 33.275 21.4333V2.56666C33.275 2.12463 33.0994 1.70071 32.7868 1.38815C32.4743 1.07559 32.0503 0.899994 31.6083 0.899994H2.39164V0.924994Z" stroke="white" stroke-linecap="round" stroke-linejoin="round"/>
</svg>
