<svg width="77" height="77" viewBox="0 0 77 77" fill="none" xmlns="http://www.w3.org/2000/svg">
<path d="M31.6951 43.428L27.1553 38.885L33.9634 32.0833L27.1553 25.2784L31.6983 20.7386L38.5 27.5467L45.3049 20.7386L49.8447 25.2784L43.0366 32.0833L49.8447 38.8882L45.3049 43.428L38.5 36.6199L31.6951 43.428Z" fill="black"/>
<path d="M9.625 16.0417V67.375L25.025 55.825C26.1351 54.9908 27.4858 54.5417 28.875 54.5417H60.9583C62.6601 54.5417 64.2922 53.8656 65.4956 52.6623C66.699 51.4589 67.375 49.8268 67.375 48.125V16.0417C67.375 14.3399 66.699 12.7078 65.4956 11.5044C64.2922 10.301 62.6601 9.625 60.9583 9.625H16.0417C14.3399 9.625 12.7078 10.301 11.5044 11.5044C10.301 12.7078 9.625 14.3399 9.625 16.0417ZM16.0417 54.5417V16.0417H60.9583V48.125H26.7382C25.3493 48.1213 23.9972 48.572 22.8882 49.4083L16.0417 54.5417Z" fill="black"/>
</svg>
