<svg width="31" height="30" viewBox="0 0 31 30" fill="none" xmlns="http://www.w3.org/2000/svg">
<path d="M25.95 18.9251C24.6265 18.7617 23.3122 18.5302 22.0125 18.2313C21.6952 18.1253 21.3559 18.1029 21.0275 18.1664C20.699 18.2299 20.3925 18.3772 20.1375 18.5938C19.8063 18.9313 18.85 19.8751 17.8563 20.8501C14.2958 19.0998 11.4163 16.2181 9.6688 12.6563C10.6375 11.6626 11.5438 10.7126 11.9125 10.3813C12.1292 10.1264 12.2764 9.81989 12.3399 9.49142C12.4034 9.16294 12.3811 8.82363 12.275 8.50633C11.9758 7.20462 11.7442 5.88827 11.5813 4.56258C11.5638 4.39376 11.5122 4.23027 11.4295 4.08206C11.3468 3.93386 11.2348 3.80405 11.1003 3.70054C10.9658 3.59704 10.8116 3.522 10.6472 3.48002C10.4827 3.43803 10.3115 3.42997 10.1438 3.45633H4.8188C4.59899 3.47617 4.39324 3.57293 4.23776 3.72955C4.08227 3.88618 3.98703 4.09264 3.9688 4.31258C3.62505 9.11883 6.3063 14.2626 6.85005 15.2501V15.2876L6.92505 15.4313C8.87151 18.8072 11.6742 21.6099 15.05 23.5563V23.5563L15.325 23.7126C16.575 24.3751 21.5438 26.8751 26.1875 26.5313C26.4097 26.5159 26.6191 26.4219 26.7783 26.2662C26.9375 26.1104 27.036 25.9031 27.0563 25.6813V20.3626C27.0827 20.1949 27.0746 20.0237 27.0326 19.8592C26.9906 19.6948 26.9156 19.5406 26.8121 19.4061C26.7086 19.2716 26.5788 19.1596 26.4306 19.0769C26.2824 18.9942 26.1189 18.9425 25.95 18.9251Z" stroke="black" stroke-linecap="round" stroke-linejoin="round"/>
</svg>
